<svg width="508" height="151" viewBox="0 0 508 151" fill="none" xmlns="http://www.w3.org/2000/svg">
<path d="M4 17.0984L17.0984 4H133.976L147.075 17.0984V130.954L130.954 146.067H17.0984L4 130.954V17.0984Z" stroke="#063860" stroke-width="6.04541"/>
<rect x="30.1963" y="26.167" width="96.7266" height="32.2422" stroke="#063860" stroke-width="6.04541"/>
<rect x="30.1963" y="26.167" width="44.333" height="32.2422" stroke="#063860" stroke-width="6.04541"/>
<rect x="30.1963" y="60.4238" width="70.5298" height="28.2119" stroke="#063860" stroke-width="6.04541"/>
<rect x="30.1963" y="60.4238" width="26.1968" height="28.2119" stroke="#063860" stroke-width="6.04541"/>
<rect x="30.1963" y="90.6514" width="96.7266" height="28.2119" stroke="#063860" stroke-width="6.04541"/>
<rect x="30.1963" y="90.6514" width="48.3633" height="28.2119" stroke="#063860" stroke-width="6.04541"/>
<path d="M215.477 36.7323C217.913 39.4113 219.435 43.0036 219.435 47.0221C219.435 55.4852 212.737 62 204.396 62H179.555V13.2304H186.922C192.462 13.2304 201.961 13.2304 205.248 13.2304C212.798 13.2304 218.887 19.5625 218.887 27.295C218.887 30.8873 217.608 34.1751 215.477 36.7323ZM189.175 31.9832H205.248C207.379 31.9832 209.267 29.7913 209.267 27.295C209.267 24.8596 207.44 22.8504 205.248 22.8504H189.175V31.9832ZM208.293 50.8579C208.962 50.1881 209.815 48.9095 209.815 47.0221C209.815 45.0737 208.962 43.856 208.293 43.1254C207.258 42.1512 205.918 41.6032 204.396 41.6032H189.175V52.38H204.396C205.918 52.38 207.258 51.8321 208.293 50.8579ZM253.782 62L245.197 43.4298H234.603V62H224.922V13.2913H234.603H247.693C256.034 13.2913 262.793 20.0496 262.793 28.3301C262.793 34.0534 259.566 39.046 254.878 41.6032L264.071 62H253.782ZM234.603 22.9112V33.7489H247.693C250.737 33.7489 253.112 31.3135 253.112 28.3301C253.112 25.3467 250.737 22.9112 247.693 22.9112H234.603ZM269.575 62V13.2913H279.195V62H269.575ZM312.61 50.0055L320.404 55.7288C316.994 59.9908 311.697 62.7915 305.791 62.7915H303.234C293.005 62.7915 284.664 54.511 284.664 44.2822V31.2526C284.664 21.0238 293.005 12.6824 303.234 12.6824H305.791C311.697 12.6824 316.994 15.4832 320.404 19.8061L312.61 25.4685C310.966 23.5201 308.531 22.3024 305.791 22.3024H303.234C298.302 22.3024 294.284 26.3209 294.284 31.2526V44.2822C294.284 49.214 298.302 53.1715 303.234 53.1715H305.791C308.531 53.1715 310.966 51.9538 312.61 50.0055ZM354.073 61.9391L341.226 42.0294L335.503 49.3357V62H325.883V13.2304H335.503V33.8098L351.699 13.2913H363.815L347.497 34.0534L365.154 61.9391H354.073ZM424.701 13.2913H434.321V62H424.701L403.939 30.5829V62H394.38V13.2913H404L424.701 44.5257V13.2913ZM218.704 86.2913H228.202V135H218.643V106.566L209.267 123.98H198.429L189.114 106.688V135H179.555V86.2913H188.992L189.114 86.4739V86.5348L203.848 113.933L218.704 86.2913ZM255.992 85.4389C266.22 85.4389 274.562 93.7193 274.562 103.948V117.282C274.562 127.511 266.22 135.792 255.992 135.792H252.217C241.988 135.792 233.707 127.511 233.707 117.282V103.948C233.707 93.7193 241.988 85.4389 252.217 85.4389H255.992ZM255.992 94.998H252.217C247.285 94.998 243.266 99.0164 243.266 103.948V117.282C243.266 122.214 247.285 126.172 252.217 126.172H255.992C260.923 126.172 264.942 122.214 264.942 117.282V103.948C264.942 99.0164 260.923 94.998 255.992 94.998ZM308.9 135L300.315 116.43H289.721V135H280.04V86.2913H289.721H302.811C311.153 86.2913 317.911 93.0496 317.911 101.33C317.911 107.053 314.684 112.046 309.996 114.603L319.19 135H308.9ZM289.721 95.9112V106.749H302.811C305.856 106.749 308.23 104.313 308.23 101.33C308.23 98.3467 305.856 95.9112 302.811 95.9112H289.721ZM358.181 86.2913V95.9112H345.943V135H336.323V95.9112H324.085V86.2913H358.181ZM392.874 135L388.429 122.397H371.929L367.424 135H357.256L374.487 86.2913H385.811L403.042 135H392.874ZM374.974 113.873H385.385L380.149 99.1991L374.974 113.873ZM437.093 135L428.508 116.43H417.914V135H408.233V86.2913H417.914H431.005C439.346 86.2913 446.105 93.0496 446.105 101.33C446.105 107.053 442.878 112.046 438.189 114.603L447.383 135H437.093ZM417.914 95.9112V106.749H431.005C434.049 106.749 436.424 104.313 436.424 101.33C436.424 98.3467 434.049 95.9112 431.005 95.9112H417.914Z" fill="#063860"/>
</svg>
